<?xml version="1.0" encoding="UTF-8" standalone="no"?>
<svg
   xmlns:dc="http://purl.org/dc/elements/1.1/"
   xmlns:cc="http://creativecommons.org/ns#"
   xmlns:rdf="http://www.w3.org/1999/02/22-rdf-syntax-ns#"
   xmlns:svg="http://www.w3.org/2000/svg"
   xmlns="http://www.w3.org/2000/svg"
   id="svg5570"
   version="1.1"
   viewBox="0 0 512 512"
   height="512mm"
   width="512mm">
  <defs
     id="defs5564">
    <clipPath
       id="clipPath416"
       clipPathUnits="userSpaceOnUse">
      <path
         id="path414"
         d="m 106.521,505.844 h 53.4 v -53.401 h -53.4 z" />
    </clipPath>
    <clipPath
       id="clipPath432"
       clipPathUnits="userSpaceOnUse">
      <path
         id="path430"
         d="m 107.103,505.263 h 53.4 v -53.401 h -53.4 z" />
    </clipPath>
    <clipPath
       id="clipPath452"
       clipPathUnits="userSpaceOnUse">
      <path
         id="path450"
         d="m 121.394,490.97 h 53.401 v -53.4 h -53.401 z" />
    </clipPath>
    <clipPath
       id="clipPath468"
       clipPathUnits="userSpaceOnUse">
      <path
         id="path466"
         d="m 121.976,490.39 h 53.4 v -53.401 h -53.4 z" />
    </clipPath>
    <clipPath
       id="clipPath488"
       clipPathUnits="userSpaceOnUse">
      <path
         id="path486"
         d="M 252.477,497.736 H 303.71 V 458.461 H 252.477 Z" />
    </clipPath>
    <clipPath
       id="clipPath516"
       clipPathUnits="userSpaceOnUse">
      <path
         id="path514"
         d="m 260.136,464.691 h 34.022 v -18.162 h -34.022 z" />
    </clipPath>
    <clipPath
       id="clipPath1186"
       clipPathUnits="userSpaceOnUse">
      <path
         id="path1184"
         d="m 371.012,489.894 h 13.025 v -36.841 h -13.025 z" />
    </clipPath>
    <clipPath
       id="clipPath1238"
       clipPathUnits="userSpaceOnUse">
      <path
         id="path1236"
         d="m 416.701,489.894 h 13.026 v -36.841 h -13.026 z" />
    </clipPath>
    <clipPath
       id="clipPath1290"
       clipPathUnits="userSpaceOnUse">
      <path
         id="path1288"
         d="m 381.949,500.831 h 36.84 v -13.025 h -36.84 z" />
    </clipPath>
    <clipPath
       id="clipPath1342"
       clipPathUnits="userSpaceOnUse">
      <path
         id="path1340"
         d="m 381.949,455.141 h 36.84 v -13.025 h -36.84 z" />
    </clipPath>
    <clipPath
       id="clipPath1378"
       clipPathUnits="userSpaceOnUse">
      <path
         id="path1376"
         d="M 377.82,494.007 H 422.9 V 448.929 H 377.82 Z" />
    </clipPath>
    <clipPath
       id="clipPath1398"
       clipPathUnits="userSpaceOnUse">
      <path
         id="path1396"
         d="m 372.796,499.034 h 55.132 v -28.96 h -55.132 z" />
    </clipPath>
    <clipPath
       id="clipPath1422"
       clipPathUnits="userSpaceOnUse">
      <path
         id="path1420"
         d="m 390.837,480.992 h 19.048 v -10.918 h -19.048 z" />
    </clipPath>
    <clipPath
       id="clipPath2348"
       clipPathUnits="userSpaceOnUse">
      <path
         id="path2346"
         d="m 629.877,480.125 h 17.658 V 462.47 h -17.658 z" />
    </clipPath>
    <clipPath
       id="clipPath2364"
       clipPathUnits="userSpaceOnUse">
      <path
         id="path2362"
         d="m 645.464,464.54 h 17.654 v -17.656 h -17.654 z" />
    </clipPath>
    <clipPath
       id="clipPath2404"
       clipPathUnits="userSpaceOnUse">
      <path
         id="path2402"
         d="m 671.973,484.672 h 11.481 v -11.481 h -11.481 z" />
    </clipPath>
    <clipPath
       id="clipPath2420"
       clipPathUnits="userSpaceOnUse">
      <path
         id="path2418"
         d="m 682.108,494.806 h 11.481 v -11.479 h -11.481 z" />
    </clipPath>
    <clipPath
       id="clipPath2076"
       clipPathUnits="userSpaceOnUse">
      <path
         id="path2074"
         d="m 111.314,382.691 h 49.848 v -7.75 h -49.848 z" />
    </clipPath>
    <clipPath
       id="clipPath2096"
       clipPathUnits="userSpaceOnUse">
      <path
         id="path2094"
         d="m 107.858,373.707 h 56.759 v -3.637 h -56.759 z" />
    </clipPath>
    <clipPath
       id="clipPath2112"
       clipPathUnits="userSpaceOnUse">
      <path
         id="path2110"
         d="m 132.422,358.392 h 29.332 v -21.443 h -29.332 z" />
    </clipPath>
    <clipPath
       id="clipPath2140"
       clipPathUnits="userSpaceOnUse">
      <path
         id="path2138"
         d="m 140.822,357.173 h 19.79 v -19.789 h -19.79 z" />
    </clipPath>
    <clipPath
       id="clipPath2156"
       clipPathUnits="userSpaceOnUse">
      <path
         id="path2154"
         d="m 140.822,357.173 h 17.379 v -17.375 h -17.379 z" />
    </clipPath>
    <clipPath
       id="clipPath2176"
       clipPathUnits="userSpaceOnUse">
      <path
         id="path2174"
         d="m 145.11,344.851 h 3.8 v -3.797 h -3.8 z" />
    </clipPath>
    <clipPath
       id="clipPath2192"
       clipPathUnits="userSpaceOnUse">
      <path
         id="path2190"
         d="m 151.674,354.583 h 6.273 v -6.275 h -6.273 z" />
    </clipPath>
    <clipPath
       id="clipPath2448"
       clipPathUnits="userSpaceOnUse">
      <path
         id="path2446"
         d="m 242.236,390.165 h 56.261 v -4.573 h -56.261 z" />
    </clipPath>
    <clipPath
       id="clipPath2464"
       clipPathUnits="userSpaceOnUse">
      <path
         id="path2462"
         d="m 250.983,390.165 h 15.954 v -15.954 h -15.954 z" />
    </clipPath>
    <clipPath
       id="clipPath2478"
       clipPathUnits="userSpaceOnUse">
      <path
         id="path2476"
         d="m 289.59,390.165 h 8.907 v -15.954 h -8.907 z" />
    </clipPath>
    <clipPath
       id="clipPath2502"
       clipPathUnits="userSpaceOnUse">
      <path
         id="path2500"
         d="m 242.236,370.165 h 56.261 v -4.573 h -56.261 z" />
    </clipPath>
    <clipPath
       id="clipPath2518"
       clipPathUnits="userSpaceOnUse">
      <path
         id="path2516"
         d="m 250.983,370.165 h 15.954 v -15.954 h -15.954 z" />
    </clipPath>
    <clipPath
       id="clipPath2532"
       clipPathUnits="userSpaceOnUse">
      <path
         id="path2530"
         d="m 289.59,370.165 h 8.907 v -15.954 h -8.907 z" />
    </clipPath>
    <clipPath
       id="clipPath2556"
       clipPathUnits="userSpaceOnUse">
      <path
         id="path2554"
         d="m 242.236,350.165 h 56.261 v -4.573 h -56.261 z" />
    </clipPath>
    <clipPath
       id="clipPath2572"
       clipPathUnits="userSpaceOnUse">
      <path
         id="path2570"
         d="m 250.983,350.165 h 15.954 v -15.954 h -15.954 z" />
    </clipPath>
    <clipPath
       id="clipPath2586"
       clipPathUnits="userSpaceOnUse">
      <path
         id="path2584"
         d="m 289.59,350.165 h 8.907 v -15.954 h -8.907 z" />
    </clipPath>
    <clipPath
       id="clipPath2606"
       clipPathUnits="userSpaceOnUse">
      <path
         id="path2604"
         d="m 281.489,396.801 h 28.519 v -36.579 h -28.519 z" />
    </clipPath>
    <clipPath
       id="clipPath2622"
       clipPathUnits="userSpaceOnUse">
      <path
         id="path2620"
         d="m 283.593,399.946 h 12.931 v -7.461 h -12.931 z" />
    </clipPath>
    <clipPath
       id="clipPath2638"
       clipPathUnits="userSpaceOnUse">
      <path
         id="path2636"
         d="m 286.668,374.432 h 8.201 v -5.317 h -8.201 z" />
    </clipPath>
    <clipPath
       id="clipPath2024"
       clipPathUnits="userSpaceOnUse">
      <path
         id="path2022"
         d="m 394.441,370.984 h 11.848 v -6.516 h -11.848 z" />
    </clipPath>
    <clipPath
       id="clipPath2040"
       clipPathUnits="userSpaceOnUse">
      <path
         id="path2038"
         d="m 396.527,375.613 h 7.676 v -3.924 h -7.676 z" />
    </clipPath>
    <clipPath
       id="clipPath1656"
       clipPathUnits="userSpaceOnUse">
      <path
         id="path1654"
         d="m 533.209,353.736 h 13.128 v -11.67 h -13.128 z" />
    </clipPath>
    <clipPath
       id="clipPath1680"
       clipPathUnits="userSpaceOnUse">
      <path
         id="path1678"
         d="m 631.604,371.514 h 57.522 v -7.066 h -57.522 z" />
    </clipPath>
    <clipPath
       id="clipPath1696"
       clipPathUnits="userSpaceOnUse">
      <path
         id="path1694"
         d="m 632.923,369.084 h 19.375 v -19.375 h -19.375 z" />
    </clipPath>
    <clipPath
       id="clipPath1712"
       clipPathUnits="userSpaceOnUse">
      <path
         id="path1710"
         d="m 629.054,352.311 h 15.49 v -22.404 h -15.49 z" />
    </clipPath>
    <clipPath
       id="clipPath1732"
       clipPathUnits="userSpaceOnUse">
      <path
         id="path1730"
         d="m 676.187,352.309 h 15.488 v -22.402 h -15.488 z" />
    </clipPath>
    <clipPath
       id="clipPath668"
       clipPathUnits="userSpaceOnUse">
      <path
         id="path666"
         d="m 240.434,237.562 h 17.052 V 220.51 h -17.052 z" />
    </clipPath>
    <clipPath
       id="clipPath684"
       clipPathUnits="userSpaceOnUse">
      <path
         id="path682"
         d="m 239.317,237.274 h 17.882 v -16.807 h -17.882 z" />
    </clipPath>
    <clipPath
       id="clipPath704"
       clipPathUnits="userSpaceOnUse">
      <path
         id="path702"
         d="m 243.072,240.201 h 17.054 v -17.053 h -17.054 z" />
    </clipPath>
    <clipPath
       id="clipPath720"
       clipPathUnits="userSpaceOnUse">
      <path
         id="path718"
         d="m 242.563,239.913 h 17.274 v -17.274 h -17.274 z" />
    </clipPath>
    <clipPath
       id="clipPath740"
       clipPathUnits="userSpaceOnUse">
      <path
         id="path738"
         d="m 245.203,242.554 h 17.275 v -17.276 h -17.275 z" />
    </clipPath>
    <clipPath
       id="clipPath760"
       clipPathUnits="userSpaceOnUse">
      <path
         id="path758"
         d="m 247.098,242.058 h 14.884 v -14.884 h -14.884 z" />
    </clipPath>
    <clipPath
       id="clipPath788"
       clipPathUnits="userSpaceOnUse">
      <path
         id="path786"
         d="m 251.854,279.349 h 47.418 v -42.663 h -47.418 z" />
    </clipPath>
    <clipPath
       id="clipPath792"
       clipPathUnits="userSpaceOnUse">
      <path
         id="path790"
         d="m 263.785,279.349 h 35.487 v -35.488 h -35.487 z" />
    </clipPath>
    <clipPath
       id="clipPath796"
       clipPathUnits="userSpaceOnUse">
      <path
         id="path794"
         d="m 251.854,265.687 h 26.222 v -29.001 h -26.222 z" />
    </clipPath>
    <clipPath
       id="clipPath832"
       clipPathUnits="userSpaceOnUse">
      <path
         id="path830"
         d="m 287.495,272.283 h 9.645 v -26.416 h -9.645 z" />
    </clipPath>
    <clipPath
       id="clipPath836"
       clipPathUnits="userSpaceOnUse">
      <path
         id="path834"
         d="m 287.495,272.283 h 9.645 v -26.416 h -9.645 z" />
    </clipPath>
    <clipPath
       id="clipPath954"
       clipPathUnits="userSpaceOnUse">
      <path
         id="path952"
         d="m 368.566,280.766 h 62.956 v -38.284 h -62.956 z" />
    </clipPath>
    <clipPath
       id="clipPath916"
       clipPathUnits="userSpaceOnUse">
      <path
         id="path914"
         d="M 512.463,280.022 H 547.48 V 233.114 H 512.463 Z" />
    </clipPath>
    <clipPath
       id="clipPath1872"
       clipPathUnits="userSpaceOnUse">
      <path
         id="path1870"
         d="m 627.234,240.682 h 66.262 v -4.573 h -66.262 z" />
    </clipPath>
    <clipPath
       id="clipPath982"
       clipPathUnits="userSpaceOnUse">
      <path
         id="path980"
         d="m 107.37,175.83 h 40.731 V 135.101 H 107.37 Z" />
    </clipPath>
    <clipPath
       id="clipPath998"
       clipPathUnits="userSpaceOnUse">
      <path
         id="path996"
         d="m 130.606,162.258 h 32.277 V 129.98 h -32.277 z" />
    </clipPath>
    <clipPath
       id="clipPath1018"
       clipPathUnits="userSpaceOnUse">
      <path
         id="path1016"
         d="m 129.059,163.806 h 28.004 v -28.004 h -28.004 z" />
    </clipPath>
    <clipPath
       id="clipPath1038"
       clipPathUnits="userSpaceOnUse">
      <path
         id="path1036"
         d="M 134.665,158.199 H 155.73 V 137.135 H 134.665 Z" />
    </clipPath>
    <clipPath
       id="clipPath1058"
       clipPathUnits="userSpaceOnUse">
      <path
         id="path1056"
         d="m 149.224,150.152 h 4.041 v -4.042 h -4.041 z" />
    </clipPath>
    <clipPath
       id="clipPath1074"
       clipPathUnits="userSpaceOnUse">
      <path
         id="path1072"
         d="m 136.425,151.585 h 5.109 v -7.945 h -5.109 z" />
    </clipPath>
    <clipPath
       id="clipPath1098"
       clipPathUnits="userSpaceOnUse">
      <path
         id="path1096"
         d="m 108.011,134.913 h 23.656 v -23.659 h -23.656 z" />
    </clipPath>
    <clipPath
       id="clipPath1114"
       clipPathUnits="userSpaceOnUse">
      <path
         id="path1112"
         d="m 110.056,140.655 h 27.357 v -27.357 h -27.357 z" />
    </clipPath>
    <clipPath
       id="clipPath2224"
       clipPathUnits="userSpaceOnUse">
      <path
         id="path2222"
         d="m 250.347,154.746 h 33.502 v -33.502 h -33.502 z" />
    </clipPath>
    <clipPath
       id="clipPath2244"
       clipPathUnits="userSpaceOnUse">
      <path
         id="path2242"
         d="m 252.807,152.287 h 7.688 V 144.6 h -7.688 z" />
    </clipPath>
    <clipPath
       id="clipPath2260"
       clipPathUnits="userSpaceOnUse">
      <path
         id="path2258"
         d="m 256.647,148.445 h 7.688 v -7.688 h -7.688 z" />
    </clipPath>
    <clipPath
       id="clipPath2276"
       clipPathUnits="userSpaceOnUse">
      <path
         id="path2274"
         d="m 255.94,149.152 h 5.262 v -5.26 h -5.262 z" />
    </clipPath>
    <clipPath
       id="clipPath2292"
       clipPathUnits="userSpaceOnUse">
      <path
         id="path2290"
         d="m 254.239,150.855 h 5.261 v -5.26 h -5.261 z" />
    </clipPath>
    <clipPath
       id="clipPath2308"
       clipPathUnits="userSpaceOnUse">
      <path
         id="path2306"
         d="m 257.643,147.451 h 5.261 v -5.261 h -5.261 z" />
    </clipPath>
    <clipPath
       id="clipPath544"
       clipPathUnits="userSpaceOnUse">
      <path
         id="path542"
         d="m 380.647,134.154 h 13.207 v -13.207 h -13.207 z" />
    </clipPath>
    <clipPath
       id="clipPath560"
       clipPathUnits="userSpaceOnUse">
      <path
         id="path558"
         d="m 405.054,159.158 h 13.804 v -13.804 h -13.804 z" />
    </clipPath>
    <clipPath
       id="clipPath580"
       clipPathUnits="userSpaceOnUse">
      <path
         id="path578"
         d="m 405.781,167.316 h 21.236 V 146.08 h -21.236 z" />
    </clipPath>
    <clipPath
       id="clipPath600"
       clipPathUnits="userSpaceOnUse">
      <path
         id="path598"
         d="m 371.322,129.986 h 18.365 v -18.365 h -18.365 z" />
    </clipPath>
    <clipPath
       id="clipPath620"
       clipPathUnits="userSpaceOnUse">
      <path
         id="path618"
         d="m 393.23,145.032 h 15.556 V 129.477 H 393.23 Z" />
    </clipPath>
    <clipPath
       id="clipPath1920"
       clipPathUnits="userSpaceOnUse">
      <path
         id="path1918"
         d="m 512.571,167.879 h 37.137 v -18.346 h -37.137 z" />
    </clipPath>
    <clipPath
       id="clipPath1956"
       clipPathUnits="userSpaceOnUse">
      <path
         id="path1954"
         d="M 506.233,151.365 H 519.19 V 144.74 H 506.233 Z" />
    </clipPath>
    <clipPath
       id="clipPath1972"
       clipPathUnits="userSpaceOnUse">
      <path
         id="path1970"
         d="m 546.273,172.014 h 6.77 v -3.463 h -6.77 z" />
    </clipPath>
  </defs>
  <metadata
     id="metadata5567">
    <rdf:RDF>
      <cc:Work
         rdf:about="">
        <dc:format>image/svg+xml</dc:format>
        <dc:type
           rdf:resource="http://purl.org/dc/dcmitype/StillImage" />
        <dc:title></dc:title>
      </cc:Work>
    </rdf:RDF>
  </metadata>
  <g
     transform="translate(0,215)"
     id="layer1">
    <g
       style="stroke-width:0.05060491"
       id="g6171"
       transform="matrix(6.9712169,0,0,-6.9712169,-724.48669,3324.4963)">
      <g
         style="stroke-width:0.00251012"
         id="g6946"
         transform="matrix(1.0202109,0,0,1.0202109,-400.17338,326.92346)">
        <g
           style="stroke-width:0.00251012"
           id="g1894"
           transform="translate(542.3389,117.7891)">
          <path
             d="m 0,0 c -0.16,0.748 -4.568,-0.371 -4.857,-1.82 -4.094,0.845 -10.405,1.388 -17.487,1.388 -7.082,0 -13.392,-0.543 -17.486,-1.388 -0.289,1.449 -4.697,2.568 -4.858,1.82 -0.164,-0.766 -0.292,-2.994 0,-4.25 0.01,-0.037 0.034,-0.061 0.049,-0.092 0.725,-1.924 10.428,-3.447 22.295,-3.447 11.867,0 21.571,1.523 22.295,3.447 0.016,0.031 0.039,0.055 0.049,0.092 0.293,1.256 0.164,3.484 0,4.25"
             style="fill:#bfc8d5;fill-opacity:1;fill-rule:nonzero;stroke:none;stroke-width:0.00251012"
             id="path1896" />
        </g>
        <g
           style="stroke-width:0.00251012"
           id="g1898"
           transform="translate(542.3389,117.6797)">
          <path
             d="m 0,0 c 0,-2.033 -10.004,-3.68 -22.344,-3.68 -12.34,0 -22.344,1.647 -22.344,3.68 0,2.031 10.004,3.678 22.344,3.678 C -10.004,3.678 0,2.031 0,0"
             style="fill:#dce2e9;fill-opacity:1;fill-rule:nonzero;stroke:none;stroke-width:0.00251012"
             id="path1900" />
        </g>
        <g
           style="stroke-width:0.00251012"
           id="g1902"
           transform="translate(517.915,143.7324)">
          <path
             d="m 0,0 c -1.502,0.162 -4.453,-0.312 -6.102,-0.729 -1.646,-0.416 -4.468,-1.398 -5.714,-2.253 -1.247,-0.854 -1.928,-21.813 -0.414,-22.77 1.507,-0.959 7.8,-1.6 14.31,-1.6 6.51,0 12.803,0.641 14.313,1.6 C 17.904,-24.795 1.5,-0.16 0,0"
             style="fill:#5a6271;fill-opacity:1;fill-rule:nonzero;stroke:none;stroke-width:0.00251012"
             id="path1904" />
        </g>
        <g
           style="stroke-width:0.00251012"
           id="g1906"
           transform="translate(551.9229,162.6836)">
          <path
             d="m 0,0 c 0.51,1.117 -0.562,3.004 -1.127,3.859 -0.56,0.86 -1.865,2.592 -3.094,2.571 -1.226,-0.022 -39.724,-19.52 -41.332,-20.575 -3.215,-2.111 3.629,-13.035 7.071,-10.775 C -36.869,-23.861 -0.508,-1.119 0,0"
             style="fill:#dce2e9;fill-opacity:1;fill-rule:nonzero;stroke:none;stroke-width:0.00251012"
             id="path1908" />
        </g>
        <g
           style="stroke-width:0.00251012"
           id="g1910"
           transform="translate(550.8877,165.4434)">
          <path
             d="m 0,0 c -1.867,-1.846 -17.84,-10.158 -31.008,-19.377 0.192,-0.547 0.338,-1.111 0.444,-1.685 13.709,9.601 30.279,18.347 30.666,19.189 C 0.34,-1.355 0.232,-0.67 0,0"
             style="fill:#bfc8d5;fill-opacity:1;fill-rule:nonzero;stroke:none;stroke-width:0.00251012"
             id="path1912" />
        </g>
        <g
           style="stroke-width:0.00251012"
           id="g1914">
          <g
             style="stroke-width:0.00251012"
             id="g1916" />
          <g
             style="stroke-width:0.00251012"
             id="g1928">
            <g
               style="stroke-width:0.00251012"
               clip-path="url(#clipPath1920)"
               id="g1926">
              <g
                 style="stroke-width:0.00251012"
                 transform="translate(513.833,149.5332)"
                 id="g1924">
                <path
                   d="m 0,0 c 12.494,7.686 33.271,16.463 35.875,17.508 -0.523,0.48 -1.109,0.851 -1.678,0.838 C 33.213,18.328 11.945,9.264 -1.262,1.145 -0.799,0.803 -0.381,0.416 0,0"
                   style="fill:#dce2e9;fill-opacity:1;fill-rule:nonzero;stroke:none;stroke-width:0.00251012"
                   id="path1922" />
              </g>
            </g>
          </g>
        </g>
        <g
           style="stroke-width:0.00251012"
           id="g1930"
           transform="translate(522.7119,142.5508)">
          <path
             d="m 0,0 c 0,-5.521 -4.477,-10 -10,-10 -5.523,0 -10,4.479 -10,10 0,5.523 4.477,10 10,10 C -4.477,10 0,5.523 0,0"
             style="fill:#ffc52f;fill-opacity:1;fill-rule:nonzero;stroke:none;stroke-width:0.00251012"
             id="path1932" />
        </g>
        <g
           style="stroke-width:0.00251012"
           id="g1934"
           transform="translate(512.7119,134.5508)">
          <path
             d="M 0,0 C -5.186,0 -9.447,3.947 -9.949,9 -9.982,8.672 -10,8.338 -10,8 -10,2.479 -5.523,-2 0,-2 5.523,-2 10,2.479 10,8 10,8.338 9.982,8.672 9.949,9 9.447,3.947 5.186,0 0,0"
             style="fill:#f7971d;fill-opacity:1;fill-rule:nonzero;stroke:none;stroke-width:0.00251012"
             id="path1936" />
        </g>
        <g
           style="stroke-width:0.00251012"
           id="g1938"
           transform="translate(544.8584,150.9023)">
          <path
             d="m 0,0 v 17.371 c 0,2.652 2.146,4.801 4.799,4.801 2.648,0 4.801,-2.149 4.801,-4.801 L 9.6,0 C 9.6,-2.65 7.447,-4.799 4.799,-4.799 2.146,-4.799 0,-2.65 0,0"
             style="fill:#ffc52f;fill-opacity:1;fill-rule:nonzero;stroke:none;stroke-width:0.00251012"
             id="path1940" />
        </g>
        <g
           style="stroke-width:0.00251012"
           id="g1942"
           transform="translate(544.8584,153.0508)">
          <path
             d="m 0,0 v -2.148 c 0,-1.461 0.666,-2.752 1.695,-3.633 0.95,0.427 1.997,0.672 3.104,0.672 1.106,0 2.154,-0.245 3.103,-0.672 C 8.933,-4.9 9.6,-3.609 9.6,-2.148 V 0 C 8.104,0.566 6.49,0.891 4.799,0.891 3.108,0.891 1.495,0.566 0,0"
             style="fill:#f7971d;fill-opacity:1;fill-rule:nonzero;stroke:none;stroke-width:0.00251012"
             id="path1944" />
        </g>
        <g
           style="stroke-width:0.00251012"
           id="g1946"
           transform="translate(555.251,124.8281)">
          <path
             d="m 0,0 c -0.432,0 -0.869,0.094 -1.285,0.293 -1.496,0.711 -2.133,2.5 -1.422,3.996 l 4.684,9.852 c -0.317,3.898 -3.592,6.972 -7.571,6.972 -3.976,0 -7.25,-3.074 -7.568,-6.972 l 4.685,-9.852 c 0.711,-1.496 0.075,-3.285 -1.421,-3.996 -1.497,-0.713 -3.286,-0.076 -3.998,1.42 l -5,10.516 c -0.192,0.402 -0.291,0.841 -0.291,1.287 0,7.498 6.099,13.597 13.593,13.597 7.498,0 13.596,-6.099 13.596,-13.597 0,-0.446 -0.098,-0.885 -0.289,-1.287 l -5,-10.516 C 2.197,0.633 1.123,0 0,0"
             style="fill:#dce2e9;fill-opacity:1;fill-rule:nonzero;stroke:none;stroke-width:0.00251012"
             id="path1948" />
        </g>
        <g
           style="stroke-width:0.00251012"
           id="g1950">
          <g
             style="stroke-width:0.00251012"
             id="g1952" />
          <g
             style="stroke-width:0.00251012"
             id="g1964">
            <g
               clip-path="url(#clipPath1956)"
               id="g1962"
               style="opacity:0.5;stroke-width:0.00251012">
              <g
                 style="stroke-width:0.00251012"
                 transform="translate(519.1904,148.0508)"
                 id="g1960">
                <path
                   d="m 0,0 c 0,-1.828 -2.9,-3.311 -6.479,-3.311 -3.578,0 -6.478,1.483 -6.478,3.311 0,1.83 2.9,3.314 6.478,3.314 C -2.9,3.314 0,1.83 0,0"
                   style="fill:#ffc52f;fill-opacity:1;fill-rule:nonzero;stroke:none;stroke-width:0.00251012"
                   id="path1958" />
              </g>
            </g>
          </g>
        </g>
        <g
           style="stroke-width:0.00251012"
           id="g1966">
          <g
             style="stroke-width:0.00251012"
             id="g1968" />
          <g
             style="stroke-width:0.00251012"
             id="g1980">
            <g
               clip-path="url(#clipPath1972)"
               id="g1978"
               style="opacity:0.5;stroke-width:0.00251012">
              <g
                 style="stroke-width:0.00251012"
                 transform="translate(553.043,170.2812)"
                 id="g1976">
                <path
                   d="m 0,0 c 0,-0.955 -1.516,-1.73 -3.386,-1.73 -1.868,0 -3.384,0.775 -3.384,1.73 0,0.957 1.516,1.732 3.384,1.732 C -1.516,1.732 0,0.957 0,0"
                   style="fill:#ffc52f;fill-opacity:1;fill-rule:nonzero;stroke:none;stroke-width:0.00251012"
                   id="path1974" />
              </g>
            </g>
          </g>
        </g>
      </g>
    </g>
  </g>
</svg>
